<svg id="Layer_1" enable-background="new 0 0 510.007 510.007" height="512" viewBox="0 0 510.007 510.007" width="512" xmlns="http://www.w3.org/2000/svg"><g><path d="m442.346 44.895-63.385-23.049c-78.175-28.428-165.916-29.819-247.916 0l-63.384 23.049 100.634 165.112h-33.291v15c0 23.477 10.85 44.458 27.789 58.221-37.037 44.452-37.063 109.076 0 153.559-16.939 13.763-27.789 34.744-27.789 58.221v15h240v-15c0-23.477-10.85-44.458-27.789-58.221 37.037-44.452 37.063-109.076 0-153.559 16.94-13.763 27.789-34.744 27.789-58.221v-15h-33.291zm-44.685 15.672-91.081 149.44h-30.007l62.793-169.122c9.886 2.596 19.676 5.639 29.344 9.154zm-87.94-26.025-54.718 147.372-54.717-147.372c36.274-6.046 73.146-6.049 109.435 0zm-197.375 26.025 28.951-10.528c9.668-3.516 19.458-6.559 29.344-9.154l62.793 169.122h-30.007zm55.228 419.44c6.19-17.461 22.873-30 42.43-30h90c19.557 0 36.239 12.539 42.43 30zm132.429-60h-90c-6.79 0-13.365.923-19.624 2.622-12.718-13.123-21.095-29.73-24.115-47.622h177.479c-3.021 17.893-11.398 34.499-24.115 47.622-6.259-1.699-12.835-2.622-19.625-2.622zm43.74-75h-177.479c3.021-17.893 11.397-34.499 24.115-47.622 6.259 1.699 12.834 2.622 19.624 2.622h90c6.79 0 13.365-.923 19.624-2.622 12.718 13.123 21.095 29.729 24.116 47.622zm-1.31-105c-6.19 17.461-22.873 30-42.43 30h-90c-19.557 0-36.239-12.539-42.43-30z"/></g></svg>