<svg id="Layer_1" enable-background="new 0 0 510 510" height="512" viewBox="0 0 510 510" width="512" xmlns="http://www.w3.org/2000/svg"><g><path d="m390 195v-79c0-30.878-25.122-56-56-56h-4v-60h-150v60h-4c-30.878 0-56 25.122-56 56v79h-60v195h105v30h-45v90h270v-90h-45v-30h105v-195zm-56-105c14.336 0 26 11.664 26 26v154h-45v-180zm-49 0v180h-60v-180zm-75-60h90v30h-90zm-60 86c0-14.336 11.664-26 26-26h19v180h-45c0-17.605 0-134.781 0-154zm-30 244h-30v-135h30zm240 90v30h-210v-30zm-45-30h-120v-30h120zm45-60c-8.497 0-203.884 0-210 0v-60h210zm60 0h-30c0-19.676 0-115.863 0-135h30z"/></g></svg>