<svg id="Layer_1" enable-background="new 0 0 510 510" height="512" viewBox="0 0 510 510" width="512" xmlns="http://www.w3.org/2000/svg"><g><path d="m360 90v-90h-210v90h-30v227.958c0 20.662 6.058 40.67 17.52 57.862 8.165 12.247 12.48 26.501 12.48 41.221v27.625c0 36.025 29.308 65.334 65.333 65.334h79.334c36.024 0 65.333-29.309 65.333-65.333v-27.625c0-14.72 4.315-28.974 12.48-41.221 11.461-17.191 17.52-37.199 17.52-57.863v-227.958zm-180-60h30v30h30v-30h30v30h30v-30h30v60h-150zm180 90v30h-210v-30zm-12.48 239.179c-11.461 17.191-17.52 37.199-17.52 57.863v27.625c0 19.482-15.851 35.333-35.333 35.333h-79.334c-19.483 0-35.333-15.851-35.333-35.333v-27.625c0-20.662-6.058-40.67-17.52-57.862-8.165-12.247-12.48-26.501-12.48-41.221v-137.959h210v137.958c0 14.721-4.315 28.975-12.48 41.221z"/><path d="m255 210c-33.084 0-60 26.916-60 60 0 27.906 19.151 51.424 45 58.102v46.898h30v-46.898c25.85-6.678 45-30.195 45-58.102 0-33.084-26.916-60-60-60zm0 90c-16.542 0-30-13.458-30-30s13.458-30 30-30 30 13.458 30 30-13.458 30-30 30z"/><path d="m240 405h30v30h-30z"/></g></svg>