<svg id="Layer_1" enable-background="new 0 0 510 510" height="512" viewBox="0 0 510 510" width="512" xmlns="http://www.w3.org/2000/svg"><g><path d="m420 150v-22.5c0-37.22-30.28-67.5-67.5-67.5h-24.009c-6.969-34.192-37.271-60-73.491-60-36.219 0-66.523 25.808-73.491 60h-24.009c-37.22 0-67.5 30.28-67.5 67.5v22.5h45v210h-45v22.5c0 37.22 30.28 67.5 67.5 67.5h24.009c6.968 34.192 37.271 60 73.491 60 36.219 0 66.522-25.808 73.491-60h24.009c37.22 0 67.5-30.28 67.5-67.5v-22.5h-45v-210zm-207.43-90.001c6.191-17.46 22.874-29.999 42.43-29.999s36.239 12.539 42.43 30zm-91.817 60.001c3.485-17.095 18.637-30 36.747-30h195c18.109 0 33.262 12.905 36.747 30-10.536 0-261.173 0-268.494 0zm44.247 117.049 87.049-87.049h42.427l-129.476 129.476zm44.623-87.049-44.623 44.623v-44.623zm45.377 330c-19.556 0-36.239-12.539-42.43-30h84.859c-6.19 17.461-22.873 30-42.429 30zm134.247-90c-3.485 17.095-18.637 30-36.747 30-136.898 0-45.483 0-195 0-18.109 0-33.262-12.905-36.747-30zm-44.247-117.05-87.049 87.05h-42.427l129.476-129.477zm-44.624 87.05 44.624-44.624v44.624zm44.624-171.902-171.902 171.902h-8.098v-38.099l171.902-171.901h8.098z"/></g></svg>